<svg height="512pt" viewBox="0 0 512 512" width="512pt" xmlns="http://www.w3.org/2000/svg"><path d="m512 256c0 141.386719-114.613281 256-256 256s-256-114.613281-256-256 114.613281-256 256-256 256 114.613281 256 256zm0 0" fill="#663325"/><path d="m381.078125 167.058594-53.46875 53.46875-133.5-133.5-36.0625 36.0625-5.046875 129.910156-49.453125 22.964844 58.4375 58.4375-36.5 36.5 140.875 140.871094c123.441406-4.914063 224.402344-97.214844 242.6875-216.75zm0 0" fill="#3c1b13"/><path d="m331.886719 206.402344h19.679687v59.042968h-19.679687zm0 0" fill="#e2d8fc"/><path d="m341.726562 206.402344h9.839844v59.042968h-9.839844zm0 0" fill="#b3a2db"/><path d="m381.089844 167.039062v19.679688c0 21.648438-17.714844 39.363281-39.363282 39.363281-21.648437 0-39.363281-17.714843-39.363281-39.363281l-19.679687-9.839844 19.679687-9.84375h78.726563zm0 0" fill="#ff5a99"/><path d="m341.726562 226.082031v-59.042969h39.363282v19.679688c0 21.648438-17.714844 39.363281-39.363282 39.363281zm0 0" fill="#e53c79"/><path d="m253.160156 206.402344h19.679688v59.042968h-19.679688zm0 0" fill="#e2d8fc"/><path d="m263 206.402344h9.839844v59.042968h-9.839844zm0 0" fill="#b3a2db"/><path d="m302.363281 167.039062v19.679688c0 21.648438-17.714843 39.363281-39.363281 39.363281s-39.363281-17.714843-39.363281-39.363281v-19.679688zm0 0" fill="#ff5a99"/><path d="m263 226.082031v-59.042969h39.363281v19.679688c0 21.648438-17.714843 39.363281-39.363281 39.363281zm0 0" fill="#e53c79"/><path d="m420.125 275.285156-121.105469 120.449219-36.019531 2.363281-65.738281 4.328125-20.074219 20.273438-69.867188-69.867188 38.773438-36.804687c21.058594-19.878906 48.613281-30.898438 77.542969-30.898438-1.378907 0 5.117187-19.683594 12.597656-19.683594 7.28125 0 15.351563 19.683594 16.925781 19.683594 3.34375 0 6.691406.390625 9.839844 1.375 16.925781 4.332032 29.523438 19.683594 29.523438 37.984375h-68.886719v19.683594h59.042969c7.875 0 15.351562-3.152344 20.863281-8.660156l60.226562-60.226563zm0 0" fill="#ffbd86"/><path d="m292.523438 324.488281h-29.523438v-37.984375c16.925781 4.332032 29.523438 19.683594 29.523438 37.984375zm0 0" fill="#f6a96c"/><path d="m420.125 275.285156-121.105469 120.449219-36.019531 2.363281v-53.925781h19.679688c7.875 0 15.351562-3.152344 20.863281-8.660156l60.226562-60.226563zm0 0" fill="#f6a96c"/><path d="m194.113281 153.121094v-66.121094h-39.359375v66.121094l-19.683594 19.683594v13.914062l39.363282 68.886719h39.363281v-82.800781zm0 0" fill="#7fe881"/><path d="m135.070312 186.71875h39.363282v68.886719h-39.363282zm0 0" fill="#eebf00"/><path d="m430.949219 245.765625v9.839844c0 16.335937-13.84375 29.523437-30.179688 29.523437h-275.539062c-16.335938 0-30.179688-13.1875-30.179688-29.523437v-9.839844zm0 0" fill="#f2f2fc"/><path d="m430.949219 245.765625v9.839844c0 16.335937-13.84375 29.523437-30.179688 29.523437h-137.769531v-39.363281zm0 0" fill="#e2d8fc"/></svg>